HIERARCHY
ROOT Hips
{
	OFFSET 0.000000 0.000000 0.000000
	CHANNELS 6 Xposition Yposition Zposition Zrotation Yrotation Xrotation 
	JOINT LHipJoint
	{
		OFFSET 0.000000 0.000000 0.000000
		CHANNELS 3 Zrotation Yrotation Xrotation
		JOINT LeftUpLeg
		{
			OFFSET 1.363060 -1.794630 0.839290
			CHANNELS 3 Zrotation Yrotation Xrotation
			JOINT LeftLeg
			{
				OFFSET 2.448110 -6.726130 0.000000
				CHANNELS 3 Zrotation Yrotation Xrotation
				JOINT LeftFoot
				{
					OFFSET 2.562200 -7.039590 0.000000
					CHANNELS 3 Zrotation Yrotation Xrotation
					JOINT LeftToeBase
					{
						OFFSET 0.157640 -0.433110 2.322550
						CHANNELS 3 Zrotation Yrotation Xrotation
						End Site
						{
							OFFSET 0.000000 0.000000 0.000000
						}
					}
				}
			}
		}
	}
	JOINT RHipJoint
	{
		OFFSET 0.000000 0.000000 0.000000
		CHANNELS 3 Zrotation Yrotation Xrotation
		JOINT RightUpLeg
		{
			OFFSET -1.305520 -1.794630 0.839290
			CHANNELS 3 Zrotation Yrotation Xrotation
			JOINT RightLeg
			{
				OFFSET -2.542530 -6.985550 0.000000
				CHANNELS 3 Zrotation Yrotation Xrotation
				JOINT RightFoot
				{
					OFFSET -2.568260 -7.056230 0.000000
					CHANNELS 3 Zrotation Yrotation Xrotation
					JOINT RightToeBase
					{
						OFFSET -0.164730 -0.452590 2.363150
						CHANNELS 3 Zrotation Yrotation Xrotation
						End Site
						{
							OFFSET 0.000000 0.000000 0.000000
						}
					}
				}
			}
		}
	}
	JOINT LowerBack
	{
		OFFSET 0.000000 0.000000 0.000000
		CHANNELS 3 Zrotation Yrotation Xrotation
		JOINT Spine
		{
			OFFSET 0.028270 2.035590 -0.193380
			CHANNELS 3 Zrotation Yrotation Xrotation
			JOINT Spine1
			{
				OFFSET 0.056720 2.048850 -0.042750
				CHANNELS 3 Zrotation Yrotation Xrotation
				JOINT Neck
				{
					OFFSET 0.000000 0.000000 0.000000
					CHANNELS 3 Zrotation Yrotation Xrotation
					JOINT Neck1
					{
						OFFSET -0.054170 1.746240 0.172020
						CHANNELS 3 Zrotation Yrotation Xrotation
						JOINT Head
						{
							OFFSET 0.104070 1.761360 -0.123970
							CHANNELS 3 Zrotation Yrotation Xrotation
							End Site
							{
								OFFSET 0.000000 0.000000 0.000000
							}
						}
					}
				}
				JOINT LeftShoulder
				{
					OFFSET 0.000000 0.000000 0.000000
					CHANNELS 3 Zrotation Yrotation Xrotation
					JOINT LeftArm
					{
						OFFSET 3.362410 1.200890 -0.311210
						CHANNELS 3 Zrotation Yrotation Xrotation
						JOINT LeftForeArm
						{
							OFFSET 4.983000 -0.000000 -0.000000
							CHANNELS 3 Zrotation Yrotation Xrotation
							JOINT LeftHand
							{
								OFFSET 3.483560 -0.000000 -0.000000
								CHANNELS 3 Zrotation Yrotation Xrotation
								JOINT LeftFingerBase
								{
									OFFSET 0.000000 0.000000 0.000000
									CHANNELS 3 Zrotation Yrotation Xrotation
									JOINT LeftHandIndex1
									{
										OFFSET 0.715260 -0.000000 -0.000000
										CHANNELS 3 Zrotation Yrotation Xrotation
										End Site
										{
											OFFSET 0.000000 0.000000 0.000000
										}
									}
								}
								JOINT LThumb
								{
									OFFSET 0.000000 0.000000 0.000000
									CHANNELS 3 Zrotation Yrotation Xrotation
									End Site
									{
										OFFSET 0.000000 0.000000 0.000000
									}
								}
							}
						}
					}
				}
				JOINT RightShoulder
				{
					OFFSET 0.000000 0.000000 0.000000
					CHANNELS 3 Zrotation Yrotation Xrotation
					JOINT RightArm
					{
						OFFSET -3.136600 1.374050 -0.404650
						CHANNELS 3 Zrotation Yrotation Xrotation
						JOINT RightForeArm
						{
							OFFSET -5.241900 -0.000000 -0.000000
							CHANNELS 3 Zrotation Yrotation Xrotation
							JOINT RightHand
							{
								OFFSET -3.444170 -0.000000 -0.000000
								CHANNELS 3 Zrotation Yrotation Xrotation
								JOINT RightFingerBase
								{
									OFFSET 0.000000 0.000000 0.000000
									CHANNELS 3 Zrotation Yrotation Xrotation
									JOINT RightHandIndex1
									{
										OFFSET -0.622530 -0.000000 -0.000000
										CHANNELS 3 Zrotation Yrotation Xrotation
										End Site
										{
											OFFSET 0.000000 0.000000 0.000000
										}
									}
								}
								JOINT RThumb
								{
									OFFSET 0.000000 0.000000 0.000000
									CHANNELS 3 Zrotation Yrotation Xrotation
									End Site
									{
										OFFSET 0.000000 0.000000 0.000000
									}
								}
							}
						}
					}
				}
			}
		}
	}
}
MOTION
Frames: 6
Frame Time: 0.008333
52.265653 17.199676 -9.188881 -7.097104 -61.897653 7.474507 0.432099 0.039418 -0.158545 -16.932809 7.141739 -6.428291 -0.274045 6.289529 17.581202 -0.080531 2.718446 -2.858718 0.029900 1.116200 3.068700 -0.060409 0.587451 -0.317537 24.637222 4.469379 -8.998255 -1.055991 -10.463733 28.547672 0.612580 -5.765404 -11.538129 -0.412200 -4.121200 11.418000 3.121405 -1.062483 1.593339 1.276282 -1.185494 -1.192906 -2.720087 -0.691130 4.125179 0.206470 0.301342 -7.910594 5.329406 -0.382233 11.924649 -0.813800 0.318500 5.601000 -5.314082 -4.719750 0.654357 -77.947177 -1.967908 27.346946 8.984747 -19.392299 -2.580091 -1.545213 -1.558378 -17.431923 17.619350 11.985236 4.541800 -7.125000 0.000000 0.000000 -7.082900 43.548000 0.255200 7.373953 4.825985 0.315395 77.527370 0.215097 22.891884 -11.613568 23.172220 -3.499586 1.385830 0.405039 1.659738 -17.138321 -8.569739 2.988000 7.125000 0.000000 0.000000 7.311800 -39.329000 1.028200 
52.269975 17.194827 -9.192254 -7.047083 -61.876423 7.388154 0.428299 0.039497 -0.157043 -16.955563 7.314038 -6.485766 -0.272593 6.283575 17.565819 -0.095067 2.765770 -2.724675 0.015700 0.808200 2.221100 -0.066614 0.587510 -0.320138 24.631242 4.484937 -9.002937 -1.071227 -10.488445 28.623358 0.616061 -5.787454 -11.585686 -0.409400 -4.107300 11.378600 3.082346 -1.072139 1.658295 1.275876 -1.195564 -1.189454 -2.702792 -0.698072 4.104540 0.193781 0.307003 -7.873298 5.329958 -0.374756 11.925471 -0.812000 0.321600 5.592500 -5.314913 -4.722916 0.655940 -77.951456 -1.982012 27.422594 9.002176 -19.413526 -2.585392 -1.547810 -1.557909 -17.424739 17.652850 11.990853 4.552200 -7.125000 0.000000 0.000000 -7.051600 43.556500 0.252500 7.377346 4.827014 0.319111 77.497618 0.234649 22.997028 -11.590863 23.145017 -3.488225 1.387101 0.404950 1.622382 -17.150461 -8.555203 2.985300 7.125000 0.000000 0.000000 7.297700 -39.314100 1.028900 
52.275772 17.197040 -9.194468 -6.952747 -61.867311 7.233799 0.434188 0.041884 -0.157449 -16.992817 7.193312 -6.348021 -0.275687 6.282298 17.568517 -0.066329 2.661456 -2.815163 0.029500 1.109400 3.049900 -0.072424 0.583252 -0.318383 24.589315 4.469685 -8.986311 -1.086838 -10.510878 28.696285 0.616256 -5.790580 -11.598404 -0.399600 -4.058400 11.240900 3.049438 -1.065490 1.772324 1.265982 -1.181273 -1.187782 -2.730760 -0.689574 4.039719 0.218490 0.311337 -7.785792 5.334058 -0.377339 11.904934 -0.814100 0.320600 5.562800 -5.305758 -4.721436 0.649067 -77.908063 -1.740810 27.825603 9.273947 -19.765287 -2.679840 -1.534782 -1.586888 -17.698396 17.689651 12.150170 4.624000 -7.125000 0.000000 0.000000 -7.053100 43.749200 0.218900 7.366980 4.823032 0.321635 77.535307 0.211340 22.964950 -11.592911 23.147004 -3.489479 1.387386 0.404014 1.655326 -17.147207 -8.574184 2.990900 7.125000 0.000000 0.000000 7.303300 -39.333200 1.026200 
52.281043 17.190399 -9.197630 -7.007691 -61.872281 7.230586 0.431759 0.042541 -0.157540 -16.984947 7.327061 -6.387075 -0.269531 6.279007 17.559907 -0.118994 2.853575 -2.766473 0.013200 0.740700 2.035600 -0.081012 0.584891 -0.324689 24.635001 4.519526 -8.979642 -1.105276 -10.542496 28.790534 0.618999 -5.809679 -11.640580 -0.398000 -4.050700 11.219300 3.069843 -1.062558 1.840342 1.267736 -1.175741 -1.177786 -2.728992 -0.687635 4.055940 0.211469 0.309430 -7.799900 5.336362 -0.378457 11.920879 -0.810400 0.320600 5.574400 -5.313342 -4.726489 0.655836 -77.911450 -1.902521 27.781741 9.178178 -19.633593 -2.642936 -1.539640 -1.572443 -17.616459 17.671504 12.049953 4.580500 -7.125000 0.000000 0.000000 -7.048300 43.630200 0.239500 7.373521 4.828247 0.325442 77.513945 0.270755 22.976366 -11.573208 23.120590 -3.480826 1.386618 0.402368 1.674368 -17.134074 -8.552213 2.980900 7.125000 0.000000 0.000000 7.311800 -39.308200 1.031900 
52.286524 17.185445 -9.200581 -6.993400 -61.869066 7.160710 0.431095 0.043057 -0.157563 -17.005176 7.430042 -6.401519 -0.264928 6.278199 17.558928 -0.150896 2.969488 -2.739050 0.005800 0.491500 1.350600 -0.088777 0.584845 -0.328113 24.641919 4.543383 -8.975576 -1.123842 -10.572327 28.882322 0.619467 -5.818615 -11.674680 -0.393700 -4.028800 11.157800 3.060958 -1.062023 1.923820 1.266046 -1.172043 -1.171484 -2.730230 -0.686489 4.043151 0.209500 0.310480 -7.783420 5.338655 -0.377839 11.927412 -0.808300 0.321200 5.575300 -5.315445 -4.730088 0.658031 -77.906857 -1.941191 27.853242 9.189123 -19.642819 -2.645170 -1.540140 -1.572409 -17.622007 17.674546 12.052003 4.582000 -7.125000 0.000000 0.000000 -7.045500 43.632300 0.239100 7.374756 4.831335 0.328389 77.506570 0.297481 22.988799 -11.562353 23.105588 -3.475949 1.386909 0.402343 1.690442 -17.126408 -8.558570 2.981800 7.125000 0.000000 0.000000 7.319300 -39.314600 1.031900 
52.292006 17.180174 -9.203428 -6.978734 -61.865158 7.088961 0.430032 0.043661 -0.157195 -17.027575 7.534773 -6.413717 -0.260552 6.274990 17.551189 -0.188704 3.106861 -2.711001 0.001100 0.214400 0.589000 -0.098399 0.585246 -0.332420 24.649401 4.565866 -8.981657 -1.147164 -10.610192 28.998373 0.615279 -5.814011 -11.717334 -0.389200 -4.005800 11.093000 3.051863 -1.062994 2.007918 1.265014 -1.170385 -1.164893 -2.728302 -0.686657 4.034522 0.203663 0.311807 -7.777260 5.341058 -0.375929 11.937912 -0.805200 0.322600 5.581200 -5.318052 -4.734178 0.660422 -77.909000 -1.999418 27.893858 9.182951 -19.628925 -2.641292 -1.541129 -1.569823 -17.610250 17.671207 12.037985 4.575500 -7.125000 0.000000 0.000000 -7.045300 43.614800 0.242100 7.376523 4.835313 0.331136 77.495508 0.326503 22.999396 -11.552493 23.091482 -3.471541 1.387167 0.402843 1.706947 -17.115294 -8.569296 2.983700 7.125000 0.000000 0.000000 7.330500 -39.325800 1.031400 
